<?xml version="1.0" encoding="utf-8"?>
<!-- Generator: Adobe Illustrator 21.1.0, SVG Export Plug-In . SVG Version: 6.00 Build 0)  -->
<svg version="1.1" id="Layer_1" xmlns="http://www.w3.org/2000/svg" xmlns:xlink="http://www.w3.org/1999/xlink" x="0px" y="0px"
	 viewBox="0 0 248.9 131.1" style="enable-background:new 0 0 248.9 131.1;" xml:space="preserve">
<style type="text/css">
	.st0{fill:#77797C;}
	.st1{fill:#010101;}
	.st2{fill:#016748;}
	.st3{fill:#78787A;}
</style>
<g>
	<g>
		<g>
			<g>
				<path class="st0" d="M11.1,126.2l-0.9-4.4H6.7l-0.7,4.4H3.9L7,109.9h3.2l3.3,16.3H11.1z M8.4,111.3C8,114.2,7.5,117.1,7,120h3
					C9.4,117.1,8.8,114.2,8.4,111.3z"/>
				<path class="st0" d="M20.5,126.2v-9.3c0-0.9-0.3-1.6-1.2-1.6c-0.8,0-1.6,0.6-2.1,1.1v9.7h-2v-12.6H17l0.1,1.2
					c0.7-0.8,1.7-1.4,2.7-1.4c2,0,2.8,1.1,2.8,3v9.7h-2.1V126.2z"/>
				<path class="st0" d="M27.4,125.5c0.6,0,1.1-0.3,1.4-0.8c0.2-0.3,0.6-1,1-2l5.4-13.4H36l5.4,12.8c0.7,1.4,1.1,2.3,1.3,2.8
					c0.3,0.4,0.8,0.7,1.3,0.6v0.7h-7.9v-0.7c0.8,0,1.3-0.1,1.6-0.2c0.2-0.1,0.3-0.3,0.3-0.8c0-0.2-0.1-0.4-0.2-0.9
					c-0.1-0.2-0.2-0.6-0.3-0.9l-0.7-1.4h-5.4c-0.3,1-0.6,1.6-0.7,1.9c-0.2,0.7-0.3,1.1-0.3,1.3c0,0.3,0.2,0.6,0.7,0.8
					c0.3,0.1,0.7,0.1,1.2,0.1v0.7h-5v-0.6H27.4z M36.5,120.4l-2.3-5.6H34l-2.2,5.6H36.5z"/>
				<path class="st0" d="M44.1,125.6c0.4-0.1,0.8-0.2,1-0.3c0.2-0.2,0.3-0.6,0.3-1.1V117c0-0.4-0.1-0.9-0.2-1
					c-0.2-0.2-0.6-0.3-1-0.3v-0.6h4.7v1.8c0.4-0.6,0.9-1.1,1.4-1.4c0.6-0.3,1.2-0.6,2-0.6c1,0,1.9,0.2,2.4,0.8
					c0.6,0.6,0.9,1.4,0.9,2.9v5.9c0,0.6,0.1,0.9,0.3,1.1c0.2,0.1,0.4,0.2,0.9,0.3v0.6H51v-0.6c0.4-0.1,0.8-0.2,0.9-0.3
					c0.1-0.1,0.2-0.4,0.2-1v-5.9c0-0.6,0-1-0.2-1.2c-0.2-0.6-0.6-0.8-1.1-0.8c-0.4,0-0.8,0.1-1.1,0.4c-0.3,0.3-0.7,0.7-0.8,0.9v6.5
					c0,0.6,0.1,0.9,0.2,1c0.1,0.1,0.4,0.2,0.9,0.3v0.6h-5.9v-0.8H44.1z"/>
				<path class="st0" d="M57.6,116v-0.7c0.2-0.2,0.4-0.4,0.8-0.7c0.4-0.4,0.8-0.8,1.2-1.2c0.8-0.8,1.4-1.7,2-2.7h0.7v4.1h2.3v1.1
					h-2.3v7.3c0,0.3,0,0.7,0.1,0.9c0.1,0.3,0.4,0.6,0.8,0.6s0.6-0.1,0.8-0.3c0.2-0.2,0.4-0.6,0.7-0.9l0.6,0.3
					c-0.3,0.7-0.7,1.2-1,1.7c-0.7,0.8-1.6,1.1-2.5,1.1c-0.6,0-1.1-0.1-1.6-0.3c-0.8-0.4-1.2-1.2-1.2-2.2v-7.9h-1.2V116z"/>
				<path class="st0" d="M65.7,125.6c0.4-0.1,0.8-0.2,1-0.3c0.2-0.2,0.3-0.6,0.3-1.1v-12.4c0-0.4-0.1-0.9-0.2-1
					c-0.2-0.2-0.6-0.3-1-0.4v-0.6h4.8v6.9c0.6-0.6,1-1.1,1.6-1.4s1.2-0.4,1.9-0.4c0.9,0,1.7,0.2,2.3,0.8s0.9,1.4,0.9,2.8v5.9
					c0,0.6,0.1,0.9,0.3,1.1c0.2,0.2,0.4,0.3,0.9,0.4v0.6h-5.8v-0.6c0.4-0.1,0.8-0.2,0.9-0.3c0.1-0.1,0.2-0.4,0.2-1v-5.9
					c0-0.6-0.1-1-0.2-1.2c-0.2-0.6-0.6-0.8-1.1-0.8c-0.4,0-0.9,0.2-1.3,0.6c-0.4,0.4-0.7,0.7-0.7,0.8v6.5c0,0.6,0.1,0.9,0.2,1
					c0.1,0.1,0.4,0.2,0.9,0.3v0.6h-5.9L65.7,125.6L65.7,125.6z"/>
				<path class="st0" d="M80.9,116.2c1-1,2.2-1.6,3.7-1.6c0.8,0,1.6,0.2,2.2,0.7s1.2,1,1.7,1.8c0.3,0.6,0.4,1.3,0.6,2.2
					c0.1,0.4,0.1,0.8,0.1,1h-6.2c0,1,0.2,1.8,0.4,2.5c0.4,1.3,1.3,2,2.5,2c0.6,0,1.1-0.2,1.7-0.6c0.3-0.2,0.7-0.6,1.1-1.1l0.6,0.3
					c-0.8,1.2-1.7,2.1-2.7,2.5c-0.7,0.3-1.3,0.4-2.2,0.4c-1.2,0-2.3-0.4-3.3-1.4c-1-1-1.6-2.4-1.6-4.5
					C79.4,118.7,79.9,117.2,80.9,116.2z M86,119.3c0-1.4-0.1-2.4-0.3-3s-0.7-0.9-1.2-0.9c-0.7,0-1.1,0.3-1.3,1
					c-0.2,0.7-0.3,1.7-0.4,2.9H86z"/>
				<path class="st0" d="M90.1,125.6c0.4-0.1,0.8-0.1,0.9-0.3c0.2-0.2,0.4-0.7,0.4-1.2v-7.2c0-0.6-0.1-0.9-0.2-1
					c-0.2-0.2-0.6-0.3-1-0.3V115h4.7v1.8c0.4-0.6,0.8-1,1.2-1.2c0.7-0.6,1.4-0.8,2.3-0.8c1,0,1.8,0.2,2.3,0.7
					c0.3,0.2,0.6,0.7,0.9,1.3h0.2c0.4-0.6,0.9-1,1.3-1.3c0.7-0.4,1.4-0.7,2.2-0.7c0.9,0,1.7,0.2,2.2,0.8c0.7,0.6,1,1.4,1,2.5v6.1
					c0,0.6,0.1,0.9,0.2,1.1c0.2,0.1,0.6,0.2,1,0.3v0.6h-5.8v-0.6c0.4-0.1,0.8-0.2,0.9-0.3c0.2-0.1,0.2-0.6,0.2-1.1v-5.9
					c0-0.7-0.1-1.1-0.3-1.4s-0.6-0.6-1.1-0.6c-0.4,0-0.9,0.2-1.3,0.6c-0.4,0.3-0.7,0.7-0.7,0.8v6.5c0,0.6,0.1,0.9,0.2,1
					c0.1,0.1,0.4,0.2,0.9,0.3v0.6h-5.8v-0.6c0.4-0.1,0.8-0.1,0.9-0.3c0.2-0.1,0.2-0.6,0.2-1.1v-5.9c0-0.7-0.1-1.1-0.2-1.4
					c-0.2-0.3-0.6-0.6-1.1-0.6c-0.6,0-1,0.2-1.4,0.7c-0.4,0.4-0.7,0.7-0.7,0.8v6.5c0,0.6,0.1,0.9,0.2,1c0.1,0.1,0.4,0.2,0.9,0.3v0.6
					H90v-0.4H90.1z"/>
				<path class="st0" d="M119.8,126.4c-2.9,0-4.1-1.6-4.1-4.3v-8c0-2.7,1.4-4.4,4.2-4.4c2.4,0,4.1,1.2,4.1,3.8v1.9h-2.1
					c0-0.3,0-0.7,0-1c0-1.4-0.2-2.8-2-2.8c-1.4,0-2.1,0.9-2.1,2.3v8c0,1.4,0.4,2.7,2.1,2.7c2.4,0,2.1-2.3,2.1-4h2.2v1.7
					C124.2,125.1,122.6,126.4,119.8,126.4z"/>
				<path class="st0" d="M129.9,126.4c-2.4,0-3.9-1.3-3.9-3.8V117c0-2.4,1.6-3.7,3.9-3.7c2.4,0,3.9,1.2,3.9,3.7v5.6
					C133.8,125.1,132.2,126.4,129.9,126.4z M131.7,117.1c0-1.1-0.7-1.9-1.9-1.9c-1.2,0-1.9,0.8-1.9,1.9v5.6c0,1.2,0.7,1.9,1.9,1.9
					c1.2,0,1.9-0.7,1.9-1.9V117.1z"/>
				<path class="st0" d="M145.8,126.2V117c0-0.8-0.2-1.7-1.2-1.7c-0.8,0-1.4,0.6-1.9,1.2v9.6h-2v-9.3c0-0.9-0.3-1.4-1.3-1.4
					c-0.8,0-1.3,0.4-1.8,1v9.9h-2v-12.6h1.9l0.1,1.1c0.7-0.8,1.6-1.3,2.7-1.3c1.1,0,1.9,0.6,2.3,1.6c0.7-1,1.7-1.6,2.8-1.6
					c2,0,2.5,1.4,2.5,3.1v9.6L145.8,126.2L145.8,126.2z"/>
				<path class="st0" d="M155.3,126.4c-1.1,0-2-0.4-2.9-1.2v5.9h-2v-17.4h2v1c0.8-0.7,1.8-1.2,2.9-1.2c1.9,0,2.9,1.6,2.9,3.3v6
					C158.1,124.6,157.4,126.4,155.3,126.4z M156.1,117.1c0-1-0.4-1.9-1.6-1.9c-0.8,0-1.6,0.4-2.1,1v7.3c0.6,0.6,1.3,1,2.1,1
					c1.3,0,1.6-0.9,1.6-2.1V117.1z"/>
				<path class="st0" d="M165.6,126.2v-1c-0.8,0.7-1.7,1.2-2.7,1.2c-1.9,0-3.1-1.2-3.1-3.1v-0.7c0-3.1,3.2-3.9,5.6-4.2v-1.7
					c0-1.1-0.4-1.8-1.7-1.8c-1.6,0-1.8,1-1.8,2.3h-2v-0.4c0-2.4,1.4-3.5,3.8-3.5c2.2,0,3.5,1,3.5,3.3v9.5L165.6,126.2L165.6,126.2z
					 M165.3,119.7c-1.6,0.2-3.7,0.7-3.7,2.7v0.6c0,1,0.6,1.7,1.6,1.7c0.8,0,1.6-0.6,2-1v-3.9H165.3z"/>
				<path class="st0" d="M175.2,126.2v-9.3c0-0.9-0.3-1.6-1.2-1.6s-1.6,0.6-2.1,1.1v9.7h-2.1v-12.6h1.9l0.1,1.2
					c0.7-0.8,1.7-1.4,2.7-1.4c2,0,2.8,1.1,2.8,3v9.7h-2V126.2z"/>
				<path class="st0" d="M183.4,127.6c-0.6,2.2-1.3,3.5-3.8,3.5c-0.3,0-0.8,0-1.1-0.1v-1.7c0.3,0,0.7,0.1,0.9,0.1
					c1.3,0,1.7-0.8,1.9-1.9l0.3-1.7l-3.2-12.3h2.1c0.8,3.3,1.6,6.8,2.1,10.1c0.6-3.4,1.4-6.8,2.1-10.1h2.1L183.4,127.6z"/>
			</g>
		</g>
		<polygon class="st1" points="3.7,93.7 3.7,97.9 246.3,97.9 247.7,93.7 		"/>
	</g>
</g>
<g>
	<path class="st2" d="M49.8,43.3c-4.3,0.4-5.3,1.3-5.3,7.3v14.8c0,4.5,0,15.2-14.7,15.2c-14.1,0-14.1-11.1-14.1-14.5V48.4
		c0-4.2-0.8-4.9-5.1-5.1v-1.1h16.1v1.1c-4.4,0.3-5.2,1.1-5.2,5.1v18.2c0,3.7,0,11.5,9.9,11.5c4.4,0,7.6-1.8,9.3-4.4
		c0.8-1.2,1.3-3.1,1.3-7.8V50.6c0-6.1-1.3-7.1-5.3-7.3v-1.1h13.2L49.8,43.3"/>
	<path class="st2" d="M82.3,52.8c-2.7,0.3-4,0.4-4,5.4v22h-0.7l-18.5-23H59v16.4c0,4.3,0.9,5.2,4,5.4v0.8h-9.9v-0.8
		c3.2-0.2,4.1-0.9,4.1-5.4V55.2c-1.8-2.1-2.4-2.3-4.1-2.3v-0.8h7.2l16.1,20.2h0.1V58.2c0-4.9-1.2-5.2-4-5.4V52h9.9v0.9"/>
	<path class="st2" d="M88.4,79c3.5-0.1,4.1-0.8,4.1-3.8V56.6c0-3.1-0.6-3.7-4.1-3.8v-0.8h12.5v0.8c-3.1,0.1-4.1,0.4-4.1,3.8v18.6
		c0,3.3,1,3.7,4.1,3.8v0.8H88.4V79"/>
	<path class="st2" d="M141.6,54.3c-1.4-6-5.5-10.5-12.5-10.5c-2.9,0-6.1,1.1-8.5,3.4c-2.2,2.2-4.7,5.8-4.7,14
		c0,12.1,6.8,16.9,13.8,16.9c7,0,11.1-4,12.8-5.8l1,1c-0.1,0.1-5,7.2-15.4,7.2c-9.1,0-18.9-5.4-18.9-19.6c0-12.7,9.5-19.6,19.3-19.6
		c5.1,0,8.7,1.9,10,1.9c0.3,0,2.1,0,2.7-1.9h1.2l0.6,12.7h-1.3"/>
	<path class="st2" d="M174.6,79.9H164v-0.8c1.6,0,3,0,3-1.6c0-0.7-0.6-2.1-0.8-2.7l-1.8-4h-11l-1.9,4.9c-0.2,0.6-0.3,1.1-0.3,1.6
		c0,1.8,2,1.8,2.9,1.8v0.8h-8.3v-0.8c0.7,0,1.3-0.1,2.1-0.9c1-1,2.2-4.1,3.1-6l8.7-20.6h0.9l10.4,23.8c1.3,3.1,1.9,3.5,3.8,3.7v0.8
		H174.6z M163.8,69l-4.9-11.5L154,69H163.8"/>
	<path class="st2" d="M206.4,79.9h-6.8l-10-13l-2.3,0.1v8.3c0,2.8,0.4,3.7,3.8,3.8v0.8h-11.6v-0.8c3.4-0.2,3.5-1.1,3.5-4.2V56.7
		c0-3.1-0.7-3.5-3.5-3.8v-0.8h11.6c3.8,0,10.6,0.9,10.6,7.3c0,5.6-5.4,6.6-7.6,7.1l8.6,10.6c0.9,1.1,1.9,1.9,3.7,2V79.9L206.4,79.9z
		 M187.3,65.5c3.5,0,9.9-0.1,9.9-6.1c0-5.5-5.5-5.8-7.2-5.8c-2.2,0-2.7,0.3-2.7,1.6V65.5"/>
	<path class="st2" d="M233.2,79.9h-22.7v-0.8c2.7-0.2,3.7-0.6,3.7-3.8V56.7c0-3.3-1-3.5-3.7-3.8v-0.8h22.3l0.1,6h-1
		c-0.7-3.8-1.8-4.4-6.4-4.4h-5.6c-0.9,0-1.4,0-1.4,1.4v9.3h6.4c3.8,0,4.1-1,4.7-4h1v9.7h-1c-0.6-3.3-1.1-4-4.7-4l-6.4-0.1v10.4
		c0,1.8,0,1.8,6.3,1.8c5.2,0,7.3-1.2,9.2-5.5h1.2L233.2,79.9"/>
	<path class="st3" d="M40.5,24.9C29,28.7,20.6,31.1,16.9,31c-2.7,0-3.8-0.8-4.5-2.5c-0.3-0.9-0.9-2.3-1.2-3.4l0.4-0.1
		c0.6,2.1,3.2,2.2,4.4,2.2c4.2,0,15-3.5,21.7-5.8c11.5-3.8,19.9-6.2,23.6-6.1c2.7,0,3.8,0.8,4.5,2.5c0.3,0.9,0.9,2.3,1.2,3.4
		l-0.4,0.1c-0.6-2.1-3.2-2.2-4.4-2.2C58.1,19.2,47.4,22.7,40.5,24.9L40.5,24.9z M35.1,17.7c-11.5,3.8-19.9,6.2-23.6,6.1
		c-2.7,0-3.8-0.8-4.5-2.5c-0.3-0.8-0.9-2.3-1.2-3.4l0.4-0.1c0.6,2.1,3.2,2.2,4.4,2.2c4.2,0,15-3.5,21.8-5.8C43.9,10.4,52.4,8,56,8.1
		c2.7,0,3.8,0.8,4.5,2.5c0.3,0.9,0.9,2.4,1.2,3.4l-0.4,0.1c-0.6-2.1-3.2-2.2-4.4-2.2C52.6,11.9,41.8,15.4,35.1,17.7L35.1,17.7z
		 M29.5,10.4C18,14.2,9.6,16.6,6,16.5c-2.7,0-3.8-0.8-4.5-2.5c-0.3-0.9-0.9-2.3-1.2-3.4l0.4-0.1c0.6,2.1,3.2,2.2,4.4,2.2
		c4.2,0,15-3.5,21.7-5.8c11.5-3.8,19.9-6.2,23.6-6.1c2.7,0,3.8,0.8,4.5,2.5c0.3,0.8,0.9,2.3,1.2,3.4l-0.4,0.1
		c-0.6-2.1-3.2-2.2-4.4-2.2C47.2,4.7,36.4,8.2,29.5,10.4"/>
	<path class="st2" d="M240.5,76.2c0-2.1,1.8-3.8,3.8-3.8c2,0,3.8,1.6,3.8,3.8c0,2.2-1.8,3.8-3.8,3.8C242.3,80,240.5,78.4,240.5,76.2
		L240.5,76.2z M244.4,79.3c1.7,0,3-1.3,3-3.1c0-1.8-1.3-3.1-3-3.1c-1.8,0-3.1,1.3-3.1,3.1S242.6,79.3,244.4,79.3L244.4,79.3z
		 M243.6,78.4H243v-4.3h1.7c1,0,1.6,0.3,1.6,1.2c0,0.8-0.4,1.1-1.1,1.2l1.2,1.9h-0.8l-1.1-1.9h-0.8V78.4L243.6,78.4z M244.4,76
		c0.6,0,1.1,0,1.1-0.7c0-0.6-0.4-0.7-1-0.7h-0.9V76H244.4"/>
</g>
</svg>
